<?xml version="1.0" encoding="UTF-8" standalone="no"?>
<!-- Created with Inkscape (http://www.inkscape.org/) -->

<svg
   xmlns:dc="http://purl.org/dc/elements/1.1/"
   xmlns:cc="http://creativecommons.org/ns#"
   xmlns:rdf="http://www.w3.org/1999/02/22-rdf-syntax-ns#"
   xmlns:svg="http://www.w3.org/2000/svg"
   xmlns="http://www.w3.org/2000/svg"
   xmlns:sodipodi="http://sodipodi.sourceforge.net/DTD/sodipodi-0.dtd"
   xmlns:inkscape="http://www.inkscape.org/namespaces/inkscape"
   width="1000"
   height="302.28201"
   viewBox="0 0 264.58333 79.978786"
   version="1.1"
   id="svg8"
   sodipodi:docname="Kumon Math. Reading. Success.svg"
   inkscape:version="0.92.2 (5c3e80d, 2017-08-06)">
  <defs
     id="defs2">
    <clipPath
       id="clipPath7550">
      <path
         inkscape:connector-curvature="0"
         id="path7552"
         d="M 18,18 H 594 V 89.28 H 18 Z" />
    </clipPath>
    <clipPath
       id="clipPath7614">
      <path
         inkscape:connector-curvature="0"
         id="path7616"
         d="M 432,34.04 H 578.687 V 78.32 H 432 Z" />
    </clipPath>
    <clipPath
       id="clipPath7628">
      <path
         inkscape:connector-curvature="0"
         id="path7630"
         d="M 18,18 H 594 V 89.28 H 18 Z" />
    </clipPath>
  </defs>
  <sodipodi:namedview
     id="base"
     pagecolor="#ffffff"
     bordercolor="#666666"
     borderopacity="1.0"
     inkscape:pageopacity="0.0"
     inkscape:pageshadow="2"
     inkscape:zoom="0.5"
     inkscape:cx="487.40995"
     inkscape:cy="156.79202"
     inkscape:document-units="px"
     inkscape:current-layer="layer1"
     showgrid="false"
     units="px"
     inkscape:window-width="1366"
     inkscape:window-height="705"
     inkscape:window-x="-8"
     inkscape:window-y="-8"
     inkscape:window-maximized="1" />
  <metadata
     id="metadata5">
    <rdf:RDF>
      <cc:Work
         rdf:about="">
        <dc:format>image/svg+xml</dc:format>
        <dc:type
           rdf:resource="http://purl.org/dc/dcmitype/StillImage" />
        <dc:title></dc:title>
      </cc:Work>
    </rdf:RDF>
  </metadata>
  <g
     inkscape:label="Layer 1"
     inkscape:groupmode="layer"
     id="layer1"
     transform="translate(0,-217.02121)">
    <path
       d="m 0,286.72389 h 2.671875 l 2.9909265,7.85887 h 0.030132 l 2.9150831,-7.85887 h 2.6413774 v 10.03757 H 9.4427149 v -7.74616 h -0.029517 l -3.0066104,7.74616 H 4.843538 L 1.8373611,289.0153 h -0.03044 v 7.74616 H 2.4290053e-4 v -10.03757"
       style="fill-opacity:1;fill-rule:nonzero;stroke:none;stroke-width:0.10846824"
       id="path14"
       inkscape:connector-curvature="0" />
    <path
       d="m 18.824772,286.72389 h 2.018919 l 4.175595,10.03757 h -2.035082 l -1.016456,-2.65749 h -4.326799 l -1.016889,2.65749 h -1.958827 z m -0.66773,6.04416 h 3.309473 l -1.62442,-4.31416 h -0.04535 l -1.639713,4.31416"
       style="fill-opacity:1;fill-rule:nonzero;stroke:none;stroke-width:0.10846824"
       id="path16"
       inkscape:connector-curvature="0" />
    <path
       d="m 26.024353,286.72389 h 8.774862 v 1.51899 h -3.445926 v 8.51858 h -1.898193 v -8.51858 h -3.430743 v -1.51899"
       style="fill-opacity:1;fill-rule:nonzero;stroke:none;stroke-width:0.10846824"
       id="path18"
       inkscape:connector-curvature="0" />
    <path
       d="m 38.412185,286.72389 h 1.896893 v 3.99341 h 4.934438 v -3.99341 h 1.897327 v 10.03757 h -1.897327 v -4.52601 h -4.934438 v 4.52601 h -1.896893 v -10.03757"
       style="fill-opacity:1;fill-rule:nonzero;stroke:none;stroke-width:0.10846824"
       id="path20"
       inkscape:connector-curvature="0" />
    <path
       d="m 51.710933,296.76146 h 2.109198 v -1.89819 h -2.109198 z"
       style="fill-opacity:1;fill-rule:nonzero;stroke:none;stroke-width:0.10846824"
       id="path22"
       inkscape:connector-curvature="0" />
    <path
       d="m 64.811945,286.72389 h 5.176321 c 2.369381,0 3.58325,1.01394 3.58325,2.71298 0,1.9266 -1.441869,2.41809 -1.791788,2.53164 v 0.0277 c 0.653304,0.0861 1.609668,0.53515 1.609668,2.12277 0,1.1673 0.182114,2.23631 0.592779,2.64392 H 71.94753 c -0.28896,-0.43642 -0.28896,-0.98513 -0.28896,-1.47662 0,-1.841 -0.410228,-2.65662 -2.155373,-2.65662 h -2.793058 v 4.13324 h -1.898194 z m 1.898194,4.56966 h 3.11163 c 1.19955,0 1.852421,-0.54871 1.852421,-1.60246 0,-1.27957 -0.895731,-1.53295 -1.882034,-1.53295 h -3.082017 v 3.13541"
       style="fill-opacity:1;fill-rule:nonzero;stroke:none;stroke-width:0.10846824"
       id="path24"
       inkscape:connector-curvature="0" />
    <path
       d="m 77.898423,286.72389 h 7.803749 v 1.51899 h -5.905988 v 2.62824 h 5.465388 v 1.43422 h -5.465388 v 2.93713 h 6.011526 v 1.51899 h -7.909287 v -10.03757"
       style="fill-opacity:1;fill-rule:nonzero;stroke:none;stroke-width:0.10846824"
       id="path26"
       inkscape:connector-curvature="0" />
    <path
       d="m 92.761067,286.72389 h 2.019029 l 4.174292,10.03757 h -2.033782 l -1.017322,-2.65749 H 91.57681 l -1.017215,2.65749 h -1.958827 z m -0.668164,6.04416 h 3.309581 l -1.624854,-4.31416 h -0.04535 l -1.639388,4.31416"
       style="fill-opacity:1;fill-rule:nonzero;stroke:none;stroke-width:0.10846824"
       id="path28"
       inkscape:connector-curvature="0" />
    <path
       d="m 102.386,286.72389 h 4.4934 c 3.33952,0 4.78215,2.24904 4.78215,5.02004 0,2.76892 -1.44263,5.01753 -4.78215,5.01753 h -4.4934 z m 1.89776,8.60332 h 1.86728 c 2.97452,0 3.61232,-1.57406 3.61232,-3.58328 0,-2.01173 -0.6378,-3.58579 -3.61232,-3.58579 h -1.86728 v 7.16907"
       style="fill-opacity:1;fill-rule:nonzero;stroke:none;stroke-width:0.10846824"
       id="path30"
       inkscape:connector-curvature="0" />
    <path
       d="m 115.74538,296.76146 h 1.89693 v -10.03757 h -1.89693 z"
       style="fill-opacity:1;fill-rule:nonzero;stroke:none;stroke-width:0.10846824"
       id="path32"
       inkscape:connector-curvature="0" />
    <path
       d="m 122.28818,286.72389 h 2.00341 l 4.94941,7.39364 h 0.0304 v -7.39364 h 1.806 v 10.03757 h -2.00233 l -4.93422,-7.37966 h -0.0456 v 7.37966 h -1.80708 v -10.03757"
       style="fill-opacity:1;fill-rule:nonzero;stroke:none;stroke-width:0.10846824"
       id="path34"
       inkscape:connector-curvature="0" />
    <path
       d="m 145.18041,296.76146 h -1.21268 l -0.2896,-1.18087 c -1.01743,1.06772 -1.94375,1.4194 -3.26273,1.4194 -3.24862,0 -5.19129,-2.38971 -5.19129,-5.25606 0,-2.86847 1.94267,-5.25815 5.19129,-5.25815 2.36678,0 4.35609,1.16602 4.64461,3.42988 h -1.85155 c -0.18331,-1.3211 -1.42744,-1.99692 -2.79306,-1.99692 -2.32339,0 -3.29418,1.89819 -3.29418,3.82519 0,1.92448 0.97079,3.82267 3.29418,3.82267 1.94267,0.0277 3.00457,-1.05375 3.03495,-2.75618 h -2.88526 v -1.3334 h 4.61532 v 5.28444"
       style="fill-opacity:1;fill-rule:nonzero;stroke:none;stroke-width:0.10846824"
       id="path36"
       inkscape:connector-curvature="0" />
    <path
       d="m 149.53866,296.76146 h 2.10835 v -1.89819 h -2.10835 z"
       style="fill-opacity:1;fill-rule:nonzero;stroke:none;stroke-width:0.10846824"
       id="path38"
       inkscape:connector-curvature="0" />
    <path
       d="m 163.88467,293.41672 c 0,1.54525 1.23003,2.14988 2.74967,2.14988 1.66933,0 2.28976,-0.758 2.28976,-1.51769 0,-0.77326 -0.45447,-1.08257 -0.89486,-1.23849 -0.76036,-0.26565 -1.74525,-0.44915 -3.23344,-0.82921 -1.85263,-0.46268 -2.39931,-1.50328 -2.39931,-2.54434 0,-2.00836 2.00449,-2.95109 3.96343,-2.95109 2.26156,0 4.15976,1.11095 4.15976,3.20531 h -1.8982 c -0.09,-1.29442 -1.0337,-1.77235 -2.33749,-1.77235 -0.88076,0 -1.99039,0.29671 -1.99039,1.30841 0,0.70207 0.51739,1.09526 1.29185,1.29229 0.16813,0.0424 2.56528,0.6186 3.12823,0.77411 1.42635,0.39193 2.1097,1.51687 2.1097,2.55704 0,2.24987 -2.15634,3.1494 -4.31378,3.1494 -2.47307,0 -4.47757,-1.09655 -4.52204,-3.58327 h 1.89711"
       style="fill-opacity:1;fill-rule:nonzero;stroke:none;stroke-width:0.10846824"
       id="path40"
       inkscape:connector-curvature="0" />
    <path
       d="m 174.75536,286.72389 h 1.89711 v 5.8484 c 0,1.34951 0.09,2.90958 2.55009,2.90958 2.46006,0 2.55117,-1.56007 2.55117,-2.90958 v -5.8484 h 1.89711 v 6.42549 c 0,2.57228 -1.77671,3.85061 -4.44828,3.85061 -2.67158,0 -4.4472,-1.27833 -4.4472,-3.85061 v -6.42549"
       style="fill-opacity:1;fill-rule:nonzero;stroke:none;stroke-width:0.10846824"
       id="path42"
       inkscape:connector-curvature="0" />
    <path
       d="m 195.55306,289.91566 c -0.3189,-1.15248 -1.12373,-1.99692 -2.70303,-1.99692 -2.32122,0 -3.29418,1.89819 -3.29418,3.82519 0,1.92448 0.97296,3.82267 3.29418,3.82267 1.6856,0 2.613,-1.1673 2.76377,-2.62907 h 1.85156 c -0.15186,2.40367 -1.98823,4.06246 -4.61533,4.06246 -3.24754,0 -5.19129,-2.38971 -5.19129,-5.25606 0,-2.86847 1.94375,-5.25815 5.19129,-5.25815 2.44487,0.0123 4.37344,1.26561 4.60014,3.42988 h -1.89711"
       style="fill-opacity:1;fill-rule:nonzero;stroke:none;stroke-width:0.10846824"
       id="path44"
       inkscape:connector-curvature="0" />
    <path
       d="m 208.91201,289.91566 c -0.3189,-1.15248 -1.12265,-1.99692 -2.70195,-1.99692 -2.3223,0 -3.29418,1.89819 -3.29418,3.82519 0,1.92448 0.97188,3.82267 3.29418,3.82267 1.68669,0 2.61192,-1.1673 2.76378,-2.62907 h 1.85046 c -0.15078,2.40367 -1.98713,4.06246 -4.61424,4.06246 -3.24862,0 -5.19128,-2.38971 -5.19128,-5.25606 0,-2.86847 1.94266,-5.25815 5.19128,-5.25815 2.4438,0.0123 4.37236,1.26561 4.60014,3.42988 h -1.89819"
       style="fill-opacity:1;fill-rule:nonzero;stroke:none;stroke-width:0.10846824"
       id="path46"
       inkscape:connector-curvature="0" />
    <path
       d="m 214.95478,286.72389 h 7.8032 v 1.51899 h -5.9061 v 2.62824 h 5.46572 v 1.43422 h -5.46572 v 2.93713 h 6.01132 v 1.51899 h -7.90842 v -10.03757"
       style="fill-opacity:1;fill-rule:nonzero;stroke:none;stroke-width:0.10846824"
       id="path48"
       inkscape:connector-curvature="0" />
    <path
       d="m 228.16187,293.41672 c 0,1.54525 1.23003,2.14988 2.74858,2.14988 1.66933,0 2.29194,-0.758 2.29194,-1.51769 0,-0.77326 -0.45557,-1.08257 -0.89703,-1.23849 -0.7582,-0.26565 -1.74526,-0.44915 -3.23236,-0.82921 -1.85264,-0.46268 -2.39823,-1.50328 -2.39823,-2.54434 0,-2.00836 2.00341,-2.95109 3.96234,-2.95109 2.26048,0 4.15867,1.11095 4.15867,3.20531 h -1.89819 c -0.09,-1.29442 -1.03262,-1.77235 -2.33749,-1.77235 -0.87968,0 -1.98822,0.29671 -1.98822,1.30841 0,0.70207 0.51631,1.09526 1.29077,1.29229 0.16705,0.0424 2.56528,0.6186 3.12606,0.77411 1.42852,0.39193 2.11187,1.51687 2.11187,2.55704 0,2.24987 -2.15743,3.1494 -4.31269,3.1494 -2.47417,0 -4.47866,-1.09655 -4.52313,-3.58327 h 1.89711"
       style="fill-opacity:1;fill-rule:nonzero;stroke:none;stroke-width:0.10846824"
       id="path50"
       inkscape:connector-curvature="0" />
    <path
       d="m 240.39817,293.41672 c 0,1.54525 1.22895,2.14988 2.7475,2.14988 1.67042,0 2.29302,-0.758 2.29302,-1.51769 0,-0.77326 -0.45558,-1.08257 -0.89594,-1.23849 -0.76037,-0.26565 -1.74526,-0.44915 -3.23453,-0.82921 -1.85155,-0.46268 -2.39932,-1.50328 -2.39932,-2.54434 0,-2.00836 2.00558,-2.95109 3.96452,-2.95109 2.26155,0 4.15866,1.11095 4.15866,3.20531 h -1.89711 c -0.0901,-1.29442 -1.03261,-1.77235 -2.33748,-1.77235 -0.88076,0 -1.99039,0.29671 -1.99039,1.30841 0,0.70207 0.5163,1.09526 1.29077,1.29229 0.16812,0.0424 2.56636,0.6186 3.12823,0.77411 1.42743,0.39193 2.1097,1.51687 2.1097,2.55704 0,2.24987 -2.15419,3.1494 -4.31161,3.1494 -2.47416,0 -4.47866,-1.09655 -4.52421,-3.58327 h 1.89819"
       style="fill-opacity:1;fill-rule:nonzero;stroke:none;stroke-width:0.10846824"
       id="path52"
       inkscape:connector-curvature="0" />
    <path
       d="m 251.28297,296.76146 h 2.11089 v -1.89819 h -2.11089 z"
       style="fill-opacity:1;fill-rule:nonzero;stroke:none;stroke-width:0.10846824"
       id="path54"
       inkscape:connector-curvature="0" />
    <path
       d="m 204.94749,244.21882 c -0.42194,-4.57185 -2.65421,-8.38514 -4.25629,-12.47734 -1.87867,-2.96379 -4.55024,-5.83862 -7.42574,-7.81091 -2.24529,-1.14194 -4.09033,-3.29862 -6.75974,-3.46177 -5.73037,-2.47014 -12.73634,-3.00489 -19.36592,-2.12055 -0.66708,-1.3631 -2.21384,-1.10594 -3.46773,-1.3271 -1.76477,0.73725 -3.86363,0.66392 -5.5655,1.6025 -2.74099,0.62705 -5.28566,2.67267 -7.03742,4.90355 -3.04037,2.54725 -3.60115,5.74619 -5.6295,8.85197 -0.22237,1.01265 -0.52065,2.77322 -1.13133,3.61971 -2.70953,11.42515 -0.82978,23.80791 8.90091,31.17659 5.48632,4.07178 11.40326,7.14782 18.0361,8.49521 9.95087,0.94064 19.57309,-0.47876 26.13,-8.49521 6.19028,-6.13358 8.49523,-14.37034 7.57216,-22.95665 z m -7.16975,14.20248 c -3.81049,5.65989 -9.50724,11.81545 -16.45463,12.45739 -3.99488,0.9978 -9.31634,1.16297 -13.00968,-0.66103 -7.23809,-3.00403 -15.98822,-7.15336 -19.08499,-15.38514 -3.94065,-9.28759 -1.32874,-20.45342 4.90168,-27.86059 2.59565,-3.42911 6.44844,-5.01243 10.48237,-5.56455 0.29505,0.55212 0.62912,1.30834 1.32874,1.45458 2.3722,0.33136 4.34741,-1.12408 6.89099,-0.79238 9.56364,0.53475 19.28999,3.9257 24.41403,12.99081 3.9233,6.57796 4.84528,16.67481 0.53149,23.36091"
       style="fill-opacity:1;fill-rule:nonzero;stroke:none;stroke-width:0.10846824"
       id="path56"
       inkscape:connector-curvature="0" />
    <path
       d="m 161.16754,227.50569 c 0.8287,1.58341 0.22344,3.59388 -0.53366,5.04843 -0.95995,1.10596 -2.45138,1.41943 -3.85171,1.05173 -0.75385,-0.84834 -0.5521,-2.24985 -0.40458,-3.31849 0.22669,-1.53503 0.97512,-2.94816 2.6553,-3.57392 0.807,0.055 1.48927,0.3495 2.13465,0.79225"
       style="fill-opacity:1;fill-rule:nonzero;stroke:none;stroke-width:0.10846824"
       id="path58"
       inkscape:connector-curvature="0" />
    <path
       d="m 30.624923,232.14823 -16.454524,13.3967 20.157632,15.533 -3.980676,4.64426 -21.4860086,-16.06944 -2.2456308,1.73298 v 13.13607 l -6.50385837,0.12913 V 227.91109 H 6.4674202 l 0.1122877,15.0618 19.9352491,-15.59566 4.109969,4.77084"
       style="fill-opacity:1;fill-rule:nonzero;stroke:none;stroke-width:0.10846824"
       id="path60"
       inkscape:connector-curvature="0" />
    <path
       d="m 51.977441,253.11657 c 0.351763,3.04004 3.501897,5.30473 6.226402,5.96997 4.368341,0.51686 9.43587,0.22445 11.814903,-3.97862 l 0.50427,-1.3516 0.1589,-1.70753 0.127108,-23.75075 6.501697,-0.12821 -0.124955,24.67143 c -0.48095,4.42344 -3.152413,8.84266 -7.429642,10.73999 -6.097108,2.80193 -15.255515,2.59857 -20.301786,-2.37612 -2.673634,-2.50409 -3.775237,-5.63742 -3.982843,-9.15625 v -23.87905 h 6.247552 l 0.258367,24.94683"
       style="fill-opacity:1;fill-rule:nonzero;stroke:none;stroke-width:0.10846824"
       id="path62"
       inkscape:connector-curvature="0" />
    <path
       d="m 111.84703,242.30359 12.31006,-14.00555 h 5.55683 l -0.0185,36.81271 -6.30526,0.0726 -0.0314,-26.22056 c -0.16487,-0.22046 -11.51174,12.69207 -11.51174,12.69207 -3.72241,-3.95952 -11.70502,-12.78733 -11.70502,-12.78733 v 26.24334 l -6.247448,-0.055 v -36.75762 h 5.713564 l 12.238904,14.00556"
       style="fill-opacity:1;fill-rule:nonzero;stroke:none;stroke-width:0.10846824"
       id="path64"
       inkscape:connector-curvature="0" />
    <path
       d="m 246.33465,254.71181 v -25.74982 h 6.09699 v 36.53556 l -5.4462,0.0763 -22.67311,-25.84634 v 25.71499 h -6.097 l 0.12908,-36.73969 h 5.35399 c 0,0 22.46702,26.15516 22.63625,26.00905"
       style="fill-opacity:1;fill-rule:nonzero;stroke:none;stroke-width:0.10846824"
       id="path66"
       inkscape:connector-curvature="0" />
    <path
       d="m 192.06906,233.73501 c 0.86449,0.9004 1.12265,2.22783 0.79182,3.46297 -0.40893,1.38124 -1.71163,2.17359 -2.91021,2.78155 -0.7571,-0.0154 -1.43937,-0.14605 -1.99147,-0.66306 -0.60634,-1.67789 -0.0575,-3.53789 0.53366,-5.04843 0.77555,-1.19694 2.61626,-1.69483 3.5762,-0.53303"
       style="fill-opacity:1;fill-rule:nonzero;stroke:none;stroke-width:0.10846824"
       id="path68"
       inkscape:connector-curvature="0" />
    <path
       d="m 178.63527,263.9329 c 1.93833,0.62705 4.4255,0.25827 5.84318,1.86133 0.10955,0.94064 -0.0933,1.77105 -0.81134,2.39813 -2.02836,0.51271 -3.57403,-0.97873 -5.30518,-0.40678 -3.14992,-0.86436 -7.48214,0.86439 -9.67537,-1.99135 -0.22236,-0.79149 -0.25815,-1.95462 0.53583,-2.39519 3.29852,-0.6094 6.19029,0.55501 9.41288,0.53386"
       style="fill-opacity:1;fill-rule:nonzero;stroke:none;stroke-width:0.10846824"
       id="path70"
       inkscape:connector-curvature="0" />
    <path
       d="m 260.86072,227.27183 c 2.07065,0 3.72262,1.68767 3.72262,3.75832 0,2.10493 -1.65197,3.77513 -3.73999,3.77513 -2.07173,0 -3.75841,-1.6702 -3.75841,-3.77513 0,-2.07065 1.68668,-3.75832 3.75841,-3.75832 z m -0.0348,0.75213 c -1.56953,0 -2.83972,1.3528 -2.83972,3.02356 0,1.68721 1.27019,3.00695 2.85707,3.00695 1.5869,0.0154 2.87332,-1.31974 2.87332,-3.00695 0,-1.67076 -1.28642,-3.02356 -2.87332,-3.02356 z m -0.63563,5.19454 h -0.88511 v -4.17559 c 0.33625,-0.0507 0.7018,-0.11745 1.33743,-0.11745 0.71914,0 1.15193,0.11745 1.43613,0.33471 0.23306,0.18325 0.36878,0.46828 0.36878,0.90129 0,0.5012 -0.35252,0.85156 -0.80268,0.96935 v 0.0326 c 0.36773,0.068 0.60202,0.40167 0.66708,1.01907 0.0836,0.65156 0.16819,0.90288 0.23429,1.03586 h -0.91653 c -0.10085,-0.15035 -0.16911,-0.51771 -0.25274,-1.08542 -0.0661,-0.45137 -0.33299,-0.63477 -0.78423,-0.63477 h -0.40242 z m 0,-2.40527 h 0.41868 c 0.51849,0 0.91983,-0.16726 0.91983,-0.60083 0,-0.35174 -0.25274,-0.61869 -0.85258,-0.61869 -0.21677,0 -0.36878,0 -0.48593,0.0185 v 1.20248"
       style="fill-opacity:1;fill-rule:nonzero;stroke:none;stroke-width:0.10846824"
       id="path72"
       inkscape:connector-curvature="0" />
  </g>
</svg>
